<mxfile host="app.diagrams.net" modified="2021-05-11T09:56:56.308Z" agent="5.0 (Windows)" etag="FXgCRiKbKim69tLyGNcR" version="14.6.6" type="github">
  <diagram id="cM6zfb_IlbFWYgoiXEAw" name="Page-1">
    <mxGraphModel dx="2844" dy="2695" grid="1" gridSize="10" guides="1" tooltips="1" connect="1" arrows="1" fold="1" page="1" pageScale="1" pageWidth="827" pageHeight="1169" math="0" shadow="0">
      <root>
        <mxCell id="0" />
        <mxCell id="1" parent="0" />
        <mxCell id="_8lA9oBoAEAs6Rnz2gJF-42" value="&lt;div&gt;&lt;font size=&quot;1&quot;&gt;&lt;b&gt;&lt;font style=&quot;font-size: 16px&quot;&gt;/use_01&lt;/font&gt;&lt;/b&gt;&lt;/font&gt;&lt;/div&gt;&lt;div&gt;&lt;br&gt;&lt;/div&gt;&lt;div&gt;&lt;br&gt;&lt;/div&gt;&lt;div&gt;&lt;br&gt;&lt;/div&gt;&lt;div&gt;&lt;br&gt;&lt;/div&gt;&lt;div&gt;&lt;br&gt;&lt;/div&gt;&lt;div&gt;&lt;br&gt;&lt;/div&gt;&lt;div&gt;&lt;br&gt;&lt;/div&gt;&lt;div&gt;&lt;br&gt;&lt;/div&gt;&lt;div&gt;&lt;br&gt;&lt;/div&gt;&lt;div&gt;&lt;br&gt;&lt;/div&gt;&lt;div&gt;&lt;br&gt;&lt;/div&gt;&lt;div&gt;&lt;br&gt;&lt;/div&gt;&lt;div&gt;&lt;br&gt;&lt;/div&gt;&lt;div&gt;&lt;br&gt;&lt;/div&gt;&lt;div&gt;&lt;br&gt;&lt;/div&gt;&lt;div&gt;&lt;br&gt;&lt;/div&gt;&lt;div&gt;&lt;br&gt;&lt;/div&gt;&lt;div&gt;&lt;br&gt;&lt;/div&gt;&lt;div&gt;&lt;br&gt;&lt;/div&gt;&lt;div&gt;&lt;br&gt;&lt;/div&gt;&lt;div&gt;&lt;br&gt;&lt;/div&gt;&lt;div&gt;&lt;br&gt;&lt;/div&gt;&lt;div&gt;&lt;br&gt;&lt;/div&gt;&lt;div&gt;&lt;br&gt;&lt;/div&gt;&lt;div&gt;&lt;br&gt;&lt;/div&gt;&lt;div&gt;&lt;br&gt;&lt;/div&gt;&lt;div&gt;&lt;br&gt;&lt;/div&gt;&lt;div&gt;&lt;br&gt;&lt;/div&gt;&lt;div&gt;&lt;br&gt;&lt;/div&gt;&lt;div&gt;&lt;br&gt;&lt;/div&gt;&lt;div&gt;&lt;br&gt;&lt;/div&gt;&lt;div&gt;&lt;br&gt;&lt;/div&gt;" style="rounded=0;whiteSpace=wrap;html=1;" vertex="1" parent="1">
          <mxGeometry x="230" y="-140" width="1060" height="490" as="geometry" />
        </mxCell>
        <mxCell id="_8lA9oBoAEAs6Rnz2gJF-22" value="&lt;div style=&quot;font-size: 14px&quot;&gt;&lt;b&gt;/use_01/drone_01&lt;/b&gt;&lt;br&gt;&lt;/div&gt;&lt;div&gt;&lt;br&gt;&lt;/div&gt;&lt;div&gt;&lt;br&gt;&lt;/div&gt;&lt;div&gt;&lt;br&gt;&lt;/div&gt;&lt;div&gt;&lt;br&gt;&lt;/div&gt;&lt;div&gt;&lt;br&gt;&lt;/div&gt;&lt;div&gt;&lt;br&gt;&lt;/div&gt;&lt;div&gt;&lt;br&gt;&lt;/div&gt;&lt;div&gt;&lt;br&gt;&lt;/div&gt;&lt;div&gt;&lt;br&gt;&lt;/div&gt;&lt;div&gt;&lt;br&gt;&lt;/div&gt;" style="rounded=0;whiteSpace=wrap;html=1;" vertex="1" parent="1">
          <mxGeometry x="620" y="-100" width="640" height="170" as="geometry" />
        </mxCell>
        <mxCell id="_8lA9oBoAEAs6Rnz2gJF-1" value="&lt;font style=&quot;font-size: 14px&quot;&gt;/bs_drone_control&lt;/font&gt;" style="ellipse;whiteSpace=wrap;html=1;" vertex="1" parent="1">
          <mxGeometry x="60" y="370" width="160" height="50" as="geometry" />
        </mxCell>
        <mxCell id="_8lA9oBoAEAs6Rnz2gJF-45" value="" style="edgeStyle=orthogonalEdgeStyle;curved=1;rounded=0;orthogonalLoop=1;jettySize=auto;html=1;entryX=0.5;entryY=0;entryDx=0;entryDy=0;exitX=1.001;exitY=0.13;exitDx=0;exitDy=0;exitPerimeter=0;" edge="1" parent="1" source="_8lA9oBoAEAs6Rnz2gJF-2" target="_8lA9oBoAEAs6Rnz2gJF-4">
          <mxGeometry relative="1" as="geometry" />
        </mxCell>
        <mxCell id="_8lA9oBoAEAs6Rnz2gJF-2" value="/use_01/bs_use_control" style="rounded=0;whiteSpace=wrap;html=1;" vertex="1" parent="1">
          <mxGeometry x="240" y="60" width="190" height="50" as="geometry" />
        </mxCell>
        <mxCell id="_8lA9oBoAEAs6Rnz2gJF-43" value="" style="edgeStyle=orthogonalEdgeStyle;rounded=0;orthogonalLoop=1;jettySize=auto;html=1;entryX=0.5;entryY=1;entryDx=0;entryDy=0;exitX=1.003;exitY=0.873;exitDx=0;exitDy=0;exitPerimeter=0;curved=1;" edge="1" parent="1" source="_8lA9oBoAEAs6Rnz2gJF-3" target="_8lA9oBoAEAs6Rnz2gJF-4">
          <mxGeometry relative="1" as="geometry">
            <Array as="points">
              <mxPoint x="530" y="164" />
            </Array>
          </mxGeometry>
        </mxCell>
        <mxCell id="_8lA9oBoAEAs6Rnz2gJF-3" value="&lt;div&gt;&lt;font style=&quot;font-size: 12px&quot;&gt;/use_01/bs_use_setpoint&lt;/font&gt;&lt;/div&gt;" style="rounded=0;whiteSpace=wrap;html=1;" vertex="1" parent="1">
          <mxGeometry x="240" y="120" width="190" height="50" as="geometry" />
        </mxCell>
        <mxCell id="_8lA9oBoAEAs6Rnz2gJF-4" value="/use_01/use_transfer" style="ellipse;whiteSpace=wrap;html=1;" vertex="1" parent="1">
          <mxGeometry x="450" y="90" width="160" height="50" as="geometry" />
        </mxCell>
        <mxCell id="_8lA9oBoAEAs6Rnz2gJF-5" value="/use_01/drone_01/use_drone_setpoint" style="rounded=0;whiteSpace=wrap;html=1;" vertex="1" parent="1">
          <mxGeometry x="630" y="-70" width="240" height="50" as="geometry" />
        </mxCell>
        <mxCell id="_8lA9oBoAEAs6Rnz2gJF-6" value="&lt;div&gt;&lt;font style=&quot;font-size: 12px&quot;&gt;/use_01/drone_01/use_drone_control&lt;/font&gt;&lt;/div&gt;" style="rounded=0;whiteSpace=wrap;html=1;" vertex="1" parent="1">
          <mxGeometry x="630" y="-10" width="240" height="50" as="geometry" />
        </mxCell>
        <mxCell id="_8lA9oBoAEAs6Rnz2gJF-46" value="" style="edgeStyle=orthogonalEdgeStyle;curved=1;rounded=0;orthogonalLoop=1;jettySize=auto;html=1;" edge="1" parent="1" source="_8lA9oBoAEAs6Rnz2gJF-7" target="_8lA9oBoAEAs6Rnz2gJF-9">
          <mxGeometry relative="1" as="geometry" />
        </mxCell>
        <mxCell id="_8lA9oBoAEAs6Rnz2gJF-7" value="/use_01/drone_01/drone_offboard_control" style="ellipse;whiteSpace=wrap;html=1;" vertex="1" parent="1">
          <mxGeometry x="890" y="-40" width="160" height="50" as="geometry" />
        </mxCell>
        <mxCell id="_8lA9oBoAEAs6Rnz2gJF-9" value="" style="shape=image;html=1;verticalAlign=top;verticalLabelPosition=bottom;labelBackgroundColor=#ffffff;imageAspect=0;aspect=fixed;image=https://cdn4.iconfinder.com/data/icons/photographer-7/128/drone-flying-camera-surveillance-aviation-128.png" vertex="1" parent="1">
          <mxGeometry x="1120" y="-79" width="128" height="128" as="geometry" />
        </mxCell>
        <mxCell id="_8lA9oBoAEAs6Rnz2gJF-29" value="&lt;div style=&quot;font-size: 14px&quot;&gt;&lt;b&gt;/use_01/drone_10&lt;/b&gt;&lt;br&gt;&lt;/div&gt;&lt;div&gt;&lt;br&gt;&lt;/div&gt;&lt;div&gt;&lt;br&gt;&lt;/div&gt;&lt;div&gt;&lt;br&gt;&lt;/div&gt;&lt;div&gt;&lt;br&gt;&lt;/div&gt;&lt;div&gt;&lt;br&gt;&lt;/div&gt;&lt;div&gt;&lt;br&gt;&lt;/div&gt;&lt;div&gt;&lt;br&gt;&lt;/div&gt;&lt;div&gt;&lt;br&gt;&lt;/div&gt;&lt;div&gt;&lt;br&gt;&lt;/div&gt;&lt;div&gt;&lt;br&gt;&lt;/div&gt;" style="rounded=0;whiteSpace=wrap;html=1;" vertex="1" parent="1">
          <mxGeometry x="620" y="150" width="640" height="170" as="geometry" />
        </mxCell>
        <mxCell id="_8lA9oBoAEAs6Rnz2gJF-30" value="/use_01/drone_10/use_drone_setpoint" style="rounded=0;whiteSpace=wrap;html=1;" vertex="1" parent="1">
          <mxGeometry x="630" y="180" width="240" height="50" as="geometry" />
        </mxCell>
        <mxCell id="_8lA9oBoAEAs6Rnz2gJF-31" value="&lt;div&gt;&lt;font style=&quot;font-size: 12px&quot;&gt;/use_01/drone_10/use_drone_control&lt;/font&gt;&lt;/div&gt;" style="rounded=0;whiteSpace=wrap;html=1;" vertex="1" parent="1">
          <mxGeometry x="630" y="240" width="240" height="50" as="geometry" />
        </mxCell>
        <mxCell id="_8lA9oBoAEAs6Rnz2gJF-32" value="" style="edgeStyle=orthogonalEdgeStyle;rounded=0;orthogonalLoop=1;jettySize=auto;html=1;" edge="1" parent="1" source="_8lA9oBoAEAs6Rnz2gJF-33" target="_8lA9oBoAEAs6Rnz2gJF-34">
          <mxGeometry relative="1" as="geometry">
            <Array as="points">
              <mxPoint x="1140" y="235" />
              <mxPoint x="1140" y="235" />
            </Array>
          </mxGeometry>
        </mxCell>
        <mxCell id="_8lA9oBoAEAs6Rnz2gJF-33" value="/use_01/drone_10/drone_offboard_control" style="ellipse;whiteSpace=wrap;html=1;" vertex="1" parent="1">
          <mxGeometry x="890" y="210" width="160" height="50" as="geometry" />
        </mxCell>
        <mxCell id="_8lA9oBoAEAs6Rnz2gJF-34" value="" style="shape=image;html=1;verticalAlign=top;verticalLabelPosition=bottom;labelBackgroundColor=#ffffff;imageAspect=0;aspect=fixed;image=https://cdn4.iconfinder.com/data/icons/photographer-7/128/drone-flying-camera-surveillance-aviation-128.png" vertex="1" parent="1">
          <mxGeometry x="1120" y="171" width="128" height="128" as="geometry" />
        </mxCell>
        <mxCell id="_8lA9oBoAEAs6Rnz2gJF-37" value="" style="endArrow=none;dashed=1;html=1;dashPattern=1 3;strokeWidth=3;entryX=0.5;entryY=1;entryDx=0;entryDy=0;" edge="1" parent="1" target="_8lA9oBoAEAs6Rnz2gJF-22">
          <mxGeometry width="50" height="50" relative="1" as="geometry">
            <mxPoint x="940" y="140" as="sourcePoint" />
            <mxPoint x="940" y="80" as="targetPoint" />
            <Array as="points">
              <mxPoint x="940" y="100" />
            </Array>
          </mxGeometry>
        </mxCell>
        <mxCell id="_8lA9oBoAEAs6Rnz2gJF-48" value="" style="endArrow=classic;html=1;entryX=0;entryY=0.5;entryDx=0;entryDy=0;exitX=0.695;exitY=0.971;exitDx=0;exitDy=0;exitPerimeter=0;edgeStyle=orthogonalEdgeStyle;curved=1;" edge="1" parent="1" source="_8lA9oBoAEAs6Rnz2gJF-4" target="_8lA9oBoAEAs6Rnz2gJF-30">
          <mxGeometry width="50" height="50" relative="1" as="geometry">
            <mxPoint x="550" y="190" as="sourcePoint" />
            <mxPoint x="600" y="140" as="targetPoint" />
            <Array as="points">
              <mxPoint x="561" y="205" />
            </Array>
          </mxGeometry>
        </mxCell>
        <mxCell id="_8lA9oBoAEAs6Rnz2gJF-49" value="" style="endArrow=classic;html=1;entryX=0.006;entryY=0.502;entryDx=0;entryDy=0;entryPerimeter=0;exitX=0.646;exitY=0.973;exitDx=0;exitDy=0;exitPerimeter=0;edgeStyle=orthogonalEdgeStyle;curved=1;" edge="1" parent="1" source="_8lA9oBoAEAs6Rnz2gJF-4" target="_8lA9oBoAEAs6Rnz2gJF-31">
          <mxGeometry width="50" height="50" relative="1" as="geometry">
            <mxPoint x="550" y="230" as="sourcePoint" />
            <mxPoint x="600" y="180" as="targetPoint" />
            <Array as="points">
              <mxPoint x="553" y="265" />
            </Array>
          </mxGeometry>
        </mxCell>
        <mxCell id="_8lA9oBoAEAs6Rnz2gJF-50" value="" style="endArrow=classic;html=1;entryX=0;entryY=0.5;entryDx=0;entryDy=0;exitX=0.683;exitY=0.024;exitDx=0;exitDy=0;edgeStyle=orthogonalEdgeStyle;curved=1;exitPerimeter=0;" edge="1" parent="1" source="_8lA9oBoAEAs6Rnz2gJF-4" target="_8lA9oBoAEAs6Rnz2gJF-6">
          <mxGeometry width="50" height="50" relative="1" as="geometry">
            <mxPoint x="440" y="100" as="sourcePoint" />
            <mxPoint x="490" y="50" as="targetPoint" />
            <Array as="points">
              <mxPoint x="559" y="15" />
            </Array>
          </mxGeometry>
        </mxCell>
        <mxCell id="_8lA9oBoAEAs6Rnz2gJF-51" value="" style="endArrow=classic;html=1;entryX=0;entryY=0.5;entryDx=0;entryDy=0;exitX=0.64;exitY=0.009;exitDx=0;exitDy=0;exitPerimeter=0;edgeStyle=orthogonalEdgeStyle;curved=1;" edge="1" parent="1" source="_8lA9oBoAEAs6Rnz2gJF-4" target="_8lA9oBoAEAs6Rnz2gJF-5">
          <mxGeometry width="50" height="50" relative="1" as="geometry">
            <mxPoint x="410" y="30" as="sourcePoint" />
            <mxPoint x="460" y="-20" as="targetPoint" />
          </mxGeometry>
        </mxCell>
        <mxCell id="_8lA9oBoAEAs6Rnz2gJF-52" value="" style="edgeStyle=orthogonalEdgeStyle;rounded=0;orthogonalLoop=1;jettySize=auto;html=1;entryX=0.5;entryY=1;entryDx=0;entryDy=0;exitX=1.003;exitY=0.873;exitDx=0;exitDy=0;exitPerimeter=0;curved=1;" edge="1" parent="1">
          <mxGeometry relative="1" as="geometry">
            <mxPoint x="870" y="283.6500000000001" as="sourcePoint" />
            <mxPoint x="969.4300000000001" y="260" as="targetPoint" />
            <Array as="points">
              <mxPoint x="969.4300000000001" y="284" />
            </Array>
          </mxGeometry>
        </mxCell>
        <mxCell id="_8lA9oBoAEAs6Rnz2gJF-53" value="" style="edgeStyle=orthogonalEdgeStyle;curved=1;rounded=0;orthogonalLoop=1;jettySize=auto;html=1;entryX=0.5;entryY=0;entryDx=0;entryDy=0;exitX=1.001;exitY=0.13;exitDx=0;exitDy=0;exitPerimeter=0;" edge="1" parent="1">
          <mxGeometry relative="1" as="geometry">
            <mxPoint x="870" y="186.5" as="sourcePoint" />
            <mxPoint x="969.81" y="210" as="targetPoint" />
          </mxGeometry>
        </mxCell>
        <mxCell id="_8lA9oBoAEAs6Rnz2gJF-54" value="" style="edgeStyle=orthogonalEdgeStyle;rounded=0;orthogonalLoop=1;jettySize=auto;html=1;entryX=0.5;entryY=1;entryDx=0;entryDy=0;exitX=1.003;exitY=0.873;exitDx=0;exitDy=0;exitPerimeter=0;curved=1;" edge="1" parent="1">
          <mxGeometry relative="1" as="geometry">
            <mxPoint x="870" y="33.55000000000007" as="sourcePoint" />
            <mxPoint x="969.4300000000003" y="9.899999999999977" as="targetPoint" />
            <Array as="points">
              <mxPoint x="969.4300000000001" y="33.89999999999998" />
            </Array>
          </mxGeometry>
        </mxCell>
        <mxCell id="_8lA9oBoAEAs6Rnz2gJF-55" value="" style="edgeStyle=orthogonalEdgeStyle;curved=1;rounded=0;orthogonalLoop=1;jettySize=auto;html=1;entryX=0.5;entryY=0;entryDx=0;entryDy=0;exitX=1.001;exitY=0.13;exitDx=0;exitDy=0;exitPerimeter=0;" edge="1" parent="1">
          <mxGeometry relative="1" as="geometry">
            <mxPoint x="870" y="-63.60000000000002" as="sourcePoint" />
            <mxPoint x="969.81" y="-40.10000000000002" as="targetPoint" />
          </mxGeometry>
        </mxCell>
        <mxCell id="_8lA9oBoAEAs6Rnz2gJF-56" value="&lt;div&gt;&lt;font size=&quot;1&quot;&gt;&lt;b&gt;&lt;font style=&quot;font-size: 16px&quot;&gt;/use_n&lt;/font&gt;&lt;/b&gt;&lt;/font&gt;&lt;/div&gt;&lt;div&gt;&lt;br&gt;&lt;/div&gt;&lt;div&gt;&lt;br&gt;&lt;/div&gt;&lt;div&gt;&lt;br&gt;&lt;/div&gt;&lt;div&gt;&lt;br&gt;&lt;/div&gt;&lt;div&gt;&lt;br&gt;&lt;/div&gt;&lt;div&gt;&lt;br&gt;&lt;/div&gt;&lt;div&gt;&lt;br&gt;&lt;/div&gt;&lt;div&gt;&lt;br&gt;&lt;/div&gt;&lt;div&gt;&lt;br&gt;&lt;/div&gt;&lt;div&gt;&lt;br&gt;&lt;/div&gt;&lt;div&gt;&lt;br&gt;&lt;/div&gt;&lt;div&gt;&lt;br&gt;&lt;/div&gt;&lt;div&gt;&lt;br&gt;&lt;/div&gt;&lt;div&gt;&lt;br&gt;&lt;/div&gt;&lt;div&gt;&lt;br&gt;&lt;/div&gt;&lt;div&gt;&lt;br&gt;&lt;/div&gt;&lt;div&gt;&lt;br&gt;&lt;/div&gt;&lt;div&gt;&lt;br&gt;&lt;/div&gt;&lt;div&gt;&lt;br&gt;&lt;/div&gt;&lt;div&gt;&lt;br&gt;&lt;/div&gt;&lt;div&gt;&lt;br&gt;&lt;/div&gt;&lt;div&gt;&lt;br&gt;&lt;/div&gt;&lt;div&gt;&lt;br&gt;&lt;/div&gt;&lt;div&gt;&lt;br&gt;&lt;/div&gt;&lt;div&gt;&lt;br&gt;&lt;/div&gt;&lt;div&gt;&lt;br&gt;&lt;/div&gt;&lt;div&gt;&lt;br&gt;&lt;/div&gt;&lt;div&gt;&lt;br&gt;&lt;/div&gt;&lt;div&gt;&lt;br&gt;&lt;/div&gt;&lt;div&gt;&lt;br&gt;&lt;/div&gt;&lt;div&gt;&lt;br&gt;&lt;/div&gt;&lt;div&gt;&lt;br&gt;&lt;/div&gt;" style="rounded=0;whiteSpace=wrap;html=1;" vertex="1" parent="1">
          <mxGeometry x="230" y="450" width="1060" height="490" as="geometry" />
        </mxCell>
        <mxCell id="_8lA9oBoAEAs6Rnz2gJF-57" value="&lt;div style=&quot;font-size: 14px&quot;&gt;&lt;b&gt;/use_n/drone_01&lt;/b&gt;&lt;br&gt;&lt;/div&gt;&lt;div&gt;&lt;br&gt;&lt;/div&gt;&lt;div&gt;&lt;br&gt;&lt;/div&gt;&lt;div&gt;&lt;br&gt;&lt;/div&gt;&lt;div&gt;&lt;br&gt;&lt;/div&gt;&lt;div&gt;&lt;br&gt;&lt;/div&gt;&lt;div&gt;&lt;br&gt;&lt;/div&gt;&lt;div&gt;&lt;br&gt;&lt;/div&gt;&lt;div&gt;&lt;br&gt;&lt;/div&gt;&lt;div&gt;&lt;br&gt;&lt;/div&gt;&lt;div&gt;&lt;br&gt;&lt;/div&gt;" style="rounded=0;whiteSpace=wrap;html=1;" vertex="1" parent="1">
          <mxGeometry x="620" y="490" width="640" height="170" as="geometry" />
        </mxCell>
        <mxCell id="_8lA9oBoAEAs6Rnz2gJF-58" value="" style="edgeStyle=orthogonalEdgeStyle;curved=1;rounded=0;orthogonalLoop=1;jettySize=auto;html=1;entryX=0.5;entryY=0;entryDx=0;entryDy=0;exitX=1.001;exitY=0.13;exitDx=0;exitDy=0;exitPerimeter=0;" edge="1" parent="1" source="_8lA9oBoAEAs6Rnz2gJF-59" target="_8lA9oBoAEAs6Rnz2gJF-62">
          <mxGeometry relative="1" as="geometry" />
        </mxCell>
        <mxCell id="_8lA9oBoAEAs6Rnz2gJF-59" value="&lt;div&gt;/use_n/bs_use_control&lt;/div&gt;" style="rounded=0;whiteSpace=wrap;html=1;" vertex="1" parent="1">
          <mxGeometry x="240" y="650" width="190" height="50" as="geometry" />
        </mxCell>
        <mxCell id="_8lA9oBoAEAs6Rnz2gJF-60" value="" style="edgeStyle=orthogonalEdgeStyle;rounded=0;orthogonalLoop=1;jettySize=auto;html=1;entryX=0.5;entryY=1;entryDx=0;entryDy=0;exitX=1.003;exitY=0.873;exitDx=0;exitDy=0;exitPerimeter=0;curved=1;" edge="1" parent="1" source="_8lA9oBoAEAs6Rnz2gJF-61" target="_8lA9oBoAEAs6Rnz2gJF-62">
          <mxGeometry relative="1" as="geometry">
            <Array as="points">
              <mxPoint x="530" y="754" />
            </Array>
          </mxGeometry>
        </mxCell>
        <mxCell id="_8lA9oBoAEAs6Rnz2gJF-61" value="&lt;div&gt;&lt;font style=&quot;font-size: 12px&quot;&gt;/use_n/bs_use_setpoint&lt;/font&gt;&lt;/div&gt;" style="rounded=0;whiteSpace=wrap;html=1;" vertex="1" parent="1">
          <mxGeometry x="240" y="710" width="190" height="50" as="geometry" />
        </mxCell>
        <mxCell id="_8lA9oBoAEAs6Rnz2gJF-62" value="/use_n/use_transfer" style="ellipse;whiteSpace=wrap;html=1;" vertex="1" parent="1">
          <mxGeometry x="450" y="680" width="160" height="50" as="geometry" />
        </mxCell>
        <mxCell id="_8lA9oBoAEAs6Rnz2gJF-63" value="/use_n/drone_01/use_drone_setpoint" style="rounded=0;whiteSpace=wrap;html=1;" vertex="1" parent="1">
          <mxGeometry x="630" y="520" width="240" height="50" as="geometry" />
        </mxCell>
        <mxCell id="_8lA9oBoAEAs6Rnz2gJF-64" value="&lt;div&gt;&lt;font style=&quot;font-size: 12px&quot;&gt;/use_n/drone_01/use_drone_control&lt;/font&gt;&lt;/div&gt;" style="rounded=0;whiteSpace=wrap;html=1;" vertex="1" parent="1">
          <mxGeometry x="630" y="580" width="240" height="50" as="geometry" />
        </mxCell>
        <mxCell id="_8lA9oBoAEAs6Rnz2gJF-65" value="" style="edgeStyle=orthogonalEdgeStyle;curved=1;rounded=0;orthogonalLoop=1;jettySize=auto;html=1;" edge="1" parent="1" source="_8lA9oBoAEAs6Rnz2gJF-66" target="_8lA9oBoAEAs6Rnz2gJF-67">
          <mxGeometry relative="1" as="geometry" />
        </mxCell>
        <mxCell id="_8lA9oBoAEAs6Rnz2gJF-66" value="/use_n/drone_01/drone_offboard_control" style="ellipse;whiteSpace=wrap;html=1;" vertex="1" parent="1">
          <mxGeometry x="890" y="550" width="160" height="50" as="geometry" />
        </mxCell>
        <mxCell id="_8lA9oBoAEAs6Rnz2gJF-67" value="" style="shape=image;html=1;verticalAlign=top;verticalLabelPosition=bottom;labelBackgroundColor=#ffffff;imageAspect=0;aspect=fixed;image=https://cdn4.iconfinder.com/data/icons/photographer-7/128/drone-flying-camera-surveillance-aviation-128.png" vertex="1" parent="1">
          <mxGeometry x="1120" y="511" width="128" height="128" as="geometry" />
        </mxCell>
        <mxCell id="_8lA9oBoAEAs6Rnz2gJF-68" value="&lt;div style=&quot;font-size: 14px&quot;&gt;&lt;b&gt;/use_n/drone_10&lt;/b&gt;&lt;br&gt;&lt;/div&gt;&lt;div&gt;&lt;br&gt;&lt;/div&gt;&lt;div&gt;&lt;br&gt;&lt;/div&gt;&lt;div&gt;&lt;br&gt;&lt;/div&gt;&lt;div&gt;&lt;br&gt;&lt;/div&gt;&lt;div&gt;&lt;br&gt;&lt;/div&gt;&lt;div&gt;&lt;br&gt;&lt;/div&gt;&lt;div&gt;&lt;br&gt;&lt;/div&gt;&lt;div&gt;&lt;br&gt;&lt;/div&gt;&lt;div&gt;&lt;br&gt;&lt;/div&gt;&lt;div&gt;&lt;br&gt;&lt;/div&gt;" style="rounded=0;whiteSpace=wrap;html=1;" vertex="1" parent="1">
          <mxGeometry x="620" y="740" width="640" height="170" as="geometry" />
        </mxCell>
        <mxCell id="_8lA9oBoAEAs6Rnz2gJF-69" value="/use_n/drone_10/use_drone_setpoint" style="rounded=0;whiteSpace=wrap;html=1;" vertex="1" parent="1">
          <mxGeometry x="630" y="770" width="240" height="50" as="geometry" />
        </mxCell>
        <mxCell id="_8lA9oBoAEAs6Rnz2gJF-70" value="&lt;div&gt;&lt;font style=&quot;font-size: 12px&quot;&gt;/use_n/drone_10/use_drone_control&lt;/font&gt;&lt;/div&gt;" style="rounded=0;whiteSpace=wrap;html=1;" vertex="1" parent="1">
          <mxGeometry x="630" y="830" width="240" height="50" as="geometry" />
        </mxCell>
        <mxCell id="_8lA9oBoAEAs6Rnz2gJF-71" value="" style="edgeStyle=orthogonalEdgeStyle;rounded=0;orthogonalLoop=1;jettySize=auto;html=1;" edge="1" parent="1" source="_8lA9oBoAEAs6Rnz2gJF-72" target="_8lA9oBoAEAs6Rnz2gJF-73">
          <mxGeometry relative="1" as="geometry">
            <Array as="points">
              <mxPoint x="1140" y="825" />
              <mxPoint x="1140" y="825" />
            </Array>
          </mxGeometry>
        </mxCell>
        <mxCell id="_8lA9oBoAEAs6Rnz2gJF-72" value="/use_n/drone_10/drone_offboard_control" style="ellipse;whiteSpace=wrap;html=1;" vertex="1" parent="1">
          <mxGeometry x="890" y="800" width="160" height="50" as="geometry" />
        </mxCell>
        <mxCell id="_8lA9oBoAEAs6Rnz2gJF-73" value="" style="shape=image;html=1;verticalAlign=top;verticalLabelPosition=bottom;labelBackgroundColor=#ffffff;imageAspect=0;aspect=fixed;image=https://cdn4.iconfinder.com/data/icons/photographer-7/128/drone-flying-camera-surveillance-aviation-128.png" vertex="1" parent="1">
          <mxGeometry x="1120" y="761" width="128" height="128" as="geometry" />
        </mxCell>
        <mxCell id="_8lA9oBoAEAs6Rnz2gJF-74" value="" style="endArrow=none;dashed=1;html=1;dashPattern=1 3;strokeWidth=3;entryX=0.5;entryY=1;entryDx=0;entryDy=0;" edge="1" parent="1" target="_8lA9oBoAEAs6Rnz2gJF-57">
          <mxGeometry width="50" height="50" relative="1" as="geometry">
            <mxPoint x="939.9999999999995" y="730" as="sourcePoint" />
            <mxPoint x="940" y="670" as="targetPoint" />
            <Array as="points" />
          </mxGeometry>
        </mxCell>
        <mxCell id="_8lA9oBoAEAs6Rnz2gJF-75" value="" style="endArrow=classic;html=1;entryX=0;entryY=0.5;entryDx=0;entryDy=0;exitX=0.695;exitY=0.971;exitDx=0;exitDy=0;exitPerimeter=0;edgeStyle=orthogonalEdgeStyle;curved=1;" edge="1" parent="1" source="_8lA9oBoAEAs6Rnz2gJF-62" target="_8lA9oBoAEAs6Rnz2gJF-69">
          <mxGeometry width="50" height="50" relative="1" as="geometry">
            <mxPoint x="550" y="780" as="sourcePoint" />
            <mxPoint x="600" y="730" as="targetPoint" />
            <Array as="points">
              <mxPoint x="561" y="795" />
            </Array>
          </mxGeometry>
        </mxCell>
        <mxCell id="_8lA9oBoAEAs6Rnz2gJF-76" value="" style="endArrow=classic;html=1;entryX=0.006;entryY=0.502;entryDx=0;entryDy=0;entryPerimeter=0;exitX=0.646;exitY=0.973;exitDx=0;exitDy=0;exitPerimeter=0;edgeStyle=orthogonalEdgeStyle;curved=1;" edge="1" parent="1" source="_8lA9oBoAEAs6Rnz2gJF-62" target="_8lA9oBoAEAs6Rnz2gJF-70">
          <mxGeometry width="50" height="50" relative="1" as="geometry">
            <mxPoint x="550" y="820" as="sourcePoint" />
            <mxPoint x="600" y="770" as="targetPoint" />
            <Array as="points">
              <mxPoint x="553" y="855" />
            </Array>
          </mxGeometry>
        </mxCell>
        <mxCell id="_8lA9oBoAEAs6Rnz2gJF-77" value="" style="endArrow=classic;html=1;entryX=0;entryY=0.5;entryDx=0;entryDy=0;exitX=0.683;exitY=0.024;exitDx=0;exitDy=0;edgeStyle=orthogonalEdgeStyle;curved=1;exitPerimeter=0;" edge="1" parent="1" source="_8lA9oBoAEAs6Rnz2gJF-62" target="_8lA9oBoAEAs6Rnz2gJF-64">
          <mxGeometry width="50" height="50" relative="1" as="geometry">
            <mxPoint x="440" y="690" as="sourcePoint" />
            <mxPoint x="490" y="640" as="targetPoint" />
            <Array as="points">
              <mxPoint x="559" y="605" />
            </Array>
          </mxGeometry>
        </mxCell>
        <mxCell id="_8lA9oBoAEAs6Rnz2gJF-78" value="" style="endArrow=classic;html=1;entryX=0;entryY=0.5;entryDx=0;entryDy=0;exitX=0.64;exitY=0.009;exitDx=0;exitDy=0;exitPerimeter=0;edgeStyle=orthogonalEdgeStyle;curved=1;" edge="1" parent="1" source="_8lA9oBoAEAs6Rnz2gJF-62" target="_8lA9oBoAEAs6Rnz2gJF-63">
          <mxGeometry width="50" height="50" relative="1" as="geometry">
            <mxPoint x="410" y="620" as="sourcePoint" />
            <mxPoint x="460" y="570" as="targetPoint" />
          </mxGeometry>
        </mxCell>
        <mxCell id="_8lA9oBoAEAs6Rnz2gJF-79" value="" style="edgeStyle=orthogonalEdgeStyle;rounded=0;orthogonalLoop=1;jettySize=auto;html=1;entryX=0.5;entryY=1;entryDx=0;entryDy=0;exitX=1.003;exitY=0.873;exitDx=0;exitDy=0;exitPerimeter=0;curved=1;" edge="1" parent="1">
          <mxGeometry relative="1" as="geometry">
            <mxPoint x="869.9999999999995" y="873.6500000000003" as="sourcePoint" />
            <mxPoint x="969.4300000000003" y="850" as="targetPoint" />
            <Array as="points">
              <mxPoint x="969.4300000000001" y="874" />
            </Array>
          </mxGeometry>
        </mxCell>
        <mxCell id="_8lA9oBoAEAs6Rnz2gJF-80" value="" style="edgeStyle=orthogonalEdgeStyle;curved=1;rounded=0;orthogonalLoop=1;jettySize=auto;html=1;entryX=0.5;entryY=0;entryDx=0;entryDy=0;exitX=1.001;exitY=0.13;exitDx=0;exitDy=0;exitPerimeter=0;" edge="1" parent="1">
          <mxGeometry relative="1" as="geometry">
            <mxPoint x="869.9999999999995" y="776.5" as="sourcePoint" />
            <mxPoint x="969.81" y="800" as="targetPoint" />
          </mxGeometry>
        </mxCell>
        <mxCell id="_8lA9oBoAEAs6Rnz2gJF-81" value="" style="edgeStyle=orthogonalEdgeStyle;rounded=0;orthogonalLoop=1;jettySize=auto;html=1;entryX=0.5;entryY=1;entryDx=0;entryDy=0;exitX=1.003;exitY=0.873;exitDx=0;exitDy=0;exitPerimeter=0;curved=1;" edge="1" parent="1">
          <mxGeometry relative="1" as="geometry">
            <mxPoint x="869.9999999999995" y="623.5500000000002" as="sourcePoint" />
            <mxPoint x="969.4300000000003" y="599.9000000000001" as="targetPoint" />
            <Array as="points">
              <mxPoint x="969.4300000000001" y="623.9" />
            </Array>
          </mxGeometry>
        </mxCell>
        <mxCell id="_8lA9oBoAEAs6Rnz2gJF-82" value="" style="edgeStyle=orthogonalEdgeStyle;curved=1;rounded=0;orthogonalLoop=1;jettySize=auto;html=1;entryX=0.5;entryY=0;entryDx=0;entryDy=0;exitX=1.001;exitY=0.13;exitDx=0;exitDy=0;exitPerimeter=0;" edge="1" parent="1">
          <mxGeometry relative="1" as="geometry">
            <mxPoint x="869.9999999999995" y="526.4000000000001" as="sourcePoint" />
            <mxPoint x="969.81" y="549.9000000000001" as="targetPoint" />
          </mxGeometry>
        </mxCell>
        <mxCell id="_8lA9oBoAEAs6Rnz2gJF-84" value="" style="endArrow=none;dashed=1;html=1;dashPattern=1 3;strokeWidth=6;" edge="1" parent="1">
          <mxGeometry width="50" height="50" relative="1" as="geometry">
            <mxPoint x="760" y="440" as="sourcePoint" />
            <mxPoint x="760" y="350" as="targetPoint" />
          </mxGeometry>
        </mxCell>
        <mxCell id="_8lA9oBoAEAs6Rnz2gJF-86" value="" style="endArrow=classic;html=1;strokeWidth=1;exitX=0.5;exitY=1;exitDx=0;exitDy=0;entryX=0;entryY=0.5;entryDx=0;entryDy=0;edgeStyle=orthogonalEdgeStyle;curved=1;" edge="1" parent="1" source="_8lA9oBoAEAs6Rnz2gJF-1" target="_8lA9oBoAEAs6Rnz2gJF-61">
          <mxGeometry width="50" height="50" relative="1" as="geometry">
            <mxPoint x="540" y="370" as="sourcePoint" />
            <mxPoint x="590" y="320" as="targetPoint" />
          </mxGeometry>
        </mxCell>
        <mxCell id="_8lA9oBoAEAs6Rnz2gJF-87" value="" style="endArrow=classic;html=1;strokeWidth=1;exitX=0.547;exitY=1.003;exitDx=0;exitDy=0;exitPerimeter=0;entryX=0;entryY=0.5;entryDx=0;entryDy=0;edgeStyle=orthogonalEdgeStyle;curved=1;" edge="1" parent="1" source="_8lA9oBoAEAs6Rnz2gJF-1" target="_8lA9oBoAEAs6Rnz2gJF-59">
          <mxGeometry width="50" height="50" relative="1" as="geometry">
            <mxPoint x="280" y="550" as="sourcePoint" />
            <mxPoint x="330" y="500" as="targetPoint" />
          </mxGeometry>
        </mxCell>
        <mxCell id="_8lA9oBoAEAs6Rnz2gJF-88" value="" style="endArrow=classic;html=1;strokeWidth=1;entryX=0;entryY=0.5;entryDx=0;entryDy=0;exitX=0.5;exitY=0;exitDx=0;exitDy=0;edgeStyle=orthogonalEdgeStyle;curved=1;" edge="1" parent="1" source="_8lA9oBoAEAs6Rnz2gJF-1" target="_8lA9oBoAEAs6Rnz2gJF-2">
          <mxGeometry width="50" height="50" relative="1" as="geometry">
            <mxPoint x="280" y="280" as="sourcePoint" />
            <mxPoint x="330" y="230" as="targetPoint" />
          </mxGeometry>
        </mxCell>
        <mxCell id="_8lA9oBoAEAs6Rnz2gJF-89" value="" style="endArrow=classic;html=1;strokeWidth=1;entryX=0;entryY=0.5;entryDx=0;entryDy=0;exitX=0.543;exitY=0.008;exitDx=0;exitDy=0;exitPerimeter=0;edgeStyle=orthogonalEdgeStyle;curved=1;" edge="1" parent="1" source="_8lA9oBoAEAs6Rnz2gJF-1" target="_8lA9oBoAEAs6Rnz2gJF-3">
          <mxGeometry width="50" height="50" relative="1" as="geometry">
            <mxPoint x="280" y="280" as="sourcePoint" />
            <mxPoint x="330" y="230" as="targetPoint" />
          </mxGeometry>
        </mxCell>
      </root>
    </mxGraphModel>
  </diagram>
</mxfile>
